<?xml version="1.0" standalone="no"?>
<!DOCTYPE svg PUBLIC "-//W3C//DTD SVG 20010904//EN"
 "http://www.w3.org/TR/2001/REC-SVG-20010904/DTD/svg10.dtd">
<svg version="1.0" xmlns="http://www.w3.org/2000/svg"
 width="256.000000pt" height="256.000000pt" viewBox="0 0 256.000000 256.000000"
>
<metadata>
Created by potrace 1.16, written by Peter Selinger 2001-2019
</metadata>
<g transform="translate(0.000000,256.000000) scale(0.100000,-0.100000)"
fill="#FFC312" stroke="none">
<path d="M1015 1949 c-104 -13 -303 -65 -402 -105 -213 -86 -389 -231 -458
-376 -84 -176 -49 -357 100 -516 144 -155 367 -263 665 -324 102 -20 143 -23
360 -23 217 0 258 3 360 23 298 61 521 169 665 324 149 159 184 343 99 517
-72 147 -246 290 -457 375 -105 42 -300 92 -417 106 -100 12 -415 11 -515 -1z
m510 -90 c198 -25 407 -98 549 -193 143 -95 224 -204 248 -333 26 -143 -56
-304 -216 -417 -379 -271 -1058 -309 -1511 -84 -200 100 -314 220 -352 372
-40 164 48 332 243 462 177 118 396 183 694 208 63 5 250 -3 345 -15z"/>
<path d="M1138 1688 c-6 -147 -31 -195 -120 -233 -88 -36 -190 3 -235 90 -19
35 -21 122 -4 154 7 12 10 25 7 28 -3 3 -39 -6 -80 -21 -164 -60 -320 -187
-373 -303 -73 -157 3 -332 199 -460 56 -36 148 -83 164 -83 2 0 -5 17 -16 37
-28 53 -26 98 6 130 23 23 32 25 83 21 45 -3 67 -11 101 -36 24 -18 46 -32 49
-32 4 0 7 14 7 32 2 43 34 68 90 68 121 0 201 -98 249 -305 7 -27 10 -22 35
57 55 176 123 248 235 248 55 0 87 -25 89 -68 0 -18 3 -32 7 -32 3 0 25 14 49
32 34 25 56 33 101 36 52 4 60 2 85 -23 23 -23 26 -33 22 -70 -3 -24 -15 -57
-27 -74 -12 -17 -20 -31 -18 -31 3 0 31 12 63 27 149 67 273 175 322 280 74
163 -10 343 -222 473 -77 48 -221 108 -232 97 -3 -3 0 -16 7 -28 17 -32 15
-119 -4 -154 -71 -138 -260 -138 -335 0 -13 23 -16 54 -15 138 1 59 -1 107 -5
107 -4 0 -20 -26 -37 -58 l-30 -57 -70 0 -70 0 -30 57 c-17 31 -33 59 -36 63
-4 3 -8 -45 -11 -107z"/>
</g>
</svg>
